<svg preserveAspectRatio="none" width="100%" height="100%" overflow="visible" style="display: block;" viewBox="0 0 16.0417 14.5417" fill="none" xmlns="http://www.w3.org/2000/svg">
<g id="Group 3">
<path id="Vector" d="M4.64565 2.77083L5.77065 0.520833H10.2707L11.3957 2.77083H4.64565Z" stroke="#2A2B20" stroke-width="1.04167"/>
<path id="Vector_2" d="M14.3958 2.77083H1.64583C1.02451 2.77083 0.520833 3.27451 0.520833 3.89583V12.8958C0.520833 13.5172 1.02451 14.0208 1.64583 14.0208H14.3958C15.0172 14.0208 15.5208 13.5172 15.5208 12.8958V3.89583C15.5208 3.27451 15.0172 2.77083 14.3958 2.77083Z" stroke="#2A2B20" stroke-width="1.04167"/>
<path id="Vector_3" d="M8.02083 11.3957C9.6777 11.3957 11.0208 10.0526 11.0208 8.39574C11.0208 6.73888 9.6777 5.39574 8.02083 5.39574C6.36397 5.39574 5.02083 6.73888 5.02083 8.39574C5.02083 10.0526 6.36397 11.3957 8.02083 11.3957Z" stroke="#2A2B20" stroke-width="1.04167"/>
</g>
</svg>
