<svg width="14" height="14" viewBox="0 0 14 14" fill="none" xmlns="http://www.w3.org/2000/svg">
<g id="Frame" clip-path="url(#clip0_0_4)">
<path id="Vector" d="M3.73633 1.35478C5.05587 1.35478 6.12402 2.42463 6.12402 3.7454V6.12431H3.73926C2.4176 6.12425 1.34774 5.058 1.34766 3.73954C1.34766 2.42049 2.41533 1.35496 3.73633 1.35478Z" stroke="#2A2B20"/>
<path id="Vector_2" d="M10.2598 1.35021C11.5811 1.35021 12.6513 2.41701 12.6514 3.73596C12.6514 5.05405 11.583 6.11681 10.2607 6.11681H7.86914V3.74474C7.86936 2.42405 8.94082 1.35045 10.2598 1.35021Z" stroke="#2A2B20"/>
<path id="Vector_3" d="M3.74023 7.87598H6.125V10.2666C6.125 11.5873 5.05687 12.6572 3.7373 12.6572C2.41779 12.6572 1.34961 11.5874 1.34961 10.2666C1.34964 8.9464 2.42017 7.87598 3.74023 7.87598ZM10.2617 7.87598C11.5813 7.87598 12.6504 8.94593 12.6504 10.2666C12.6504 11.5863 11.5783 12.6572 10.2578 12.6572C8.93672 12.6572 7.86328 11.5858 7.86328 10.2666V7.87598H10.2617Z" stroke="#2A2B20"/>
</g>
<defs>
<clipPath id="clip0_0_4">
<rect width="14" height="14" fill="white"/>
</clipPath>
</defs>
</svg>
