<svg preserveAspectRatio="none" width="100%" height="100%" overflow="visible" style="display: block;" viewBox="0 0 24 24" fill="none" xmlns="http://www.w3.org/2000/svg">
<g id="Container">
<path id="Icon" d="M2.66667 24C1.93333 24 1.30556 23.7389 0.783333 23.2167C0.261111 22.6944 0 22.0667 0 21.3333V16H2.66667V21.3333V21.3333V21.3333H8V24H2.66667V24M16 24V21.3333H21.3333V21.3333V21.3333V16H24V21.3333C24 22.0667 23.7389 22.6944 23.2167 23.2167C22.6944 23.7389 22.0667 24 21.3333 24H16V24M0 8V2.66667C0 1.93333 0.261111 1.30556 0.783333 0.783333C1.30556 0.261111 1.93333 0 2.66667 0H8V2.66667H2.66667V2.66667V2.66667V8H0V8M21.3333 8V2.66667V2.66667V2.66667H16V0H21.3333C22.0667 0 22.6944 0.261111 23.2167 0.783333C23.7389 1.30556 24 1.93333 24 2.66667V8H21.3333V8M12 18.6667C10.1556 18.6667 8.58333 18.0167 7.28333 16.7167C5.98333 15.4167 5.33333 13.8444 5.33333 12C5.33333 10.1556 5.98333 8.58333 7.28333 7.28333C8.58333 5.98333 10.1556 5.33333 12 5.33333C13.8444 5.33333 15.4167 5.98333 16.7167 7.28333C18.0167 8.58333 18.6667 10.1556 18.6667 12C18.6667 13.8444 18.0167 15.4167 16.7167 16.7167C15.4167 18.0167 13.8444 18.6667 12 18.6667V18.6667M12 16C13.1111 16 14.0556 15.6111 14.8333 14.8333C15.6111 14.0556 16 13.1111 16 12C16 10.8889 15.6111 9.94444 14.8333 9.16667C14.0556 8.38889 13.1111 8 12 8C10.8889 8 9.94444 8.38889 9.16667 9.16667C8.38889 9.94444 8 10.8889 8 12C8 13.1111 8.38889 14.0556 9.16667 14.8333C9.94444 15.6111 10.8889 16 12 16V16M12 12V12V12V12V12V12V12V12V12V12" fill="#142800"/>
</g>
</svg>
