<svg width="24" height="24" viewBox="0 0 24 24" fill="none" xmlns="http://www.w3.org/2000/svg">
  <path d="M3.125 5.625C4.5057 5.625 5.625 4.5057 5.625 3.125C5.625 1.74429 4.5057 0.625 3.125 0.625C1.7443 0.625 0.625 1.74429 0.625 3.125C0.625 4.5057 1.7443 5.625 3.125 5.625Z" transform="translate(14.375 2.375)" stroke="#EEECD8" stroke-width="1.25"/>
  <path d="M3.125 5.625C4.5057 5.625 5.625 4.5057 5.625 3.125C5.625 1.7443 4.5057 0.625 3.125 0.625C1.7443 0.625 0.625 1.7443 0.625 3.125C0.625 4.5057 1.7443 5.625 3.125 5.625Z" transform="translate(3.375 8.875)" stroke="#EEECD8" stroke-width="1.25"/>
  <path d="M6.65441 0.534545L0.323862 4.36999" transform="translate(8.34559 6.25268)" stroke="#EEECD8" stroke-width="1.25"/>
  <path d="M0.317957 0.538078L6.98816 4.47958" transform="translate(8.35084 12.7435)" stroke="#EEECD8" stroke-width="1.25"/>
  <path d="M3.125 0.625C4.5057 0.625 5.625 1.7443 5.625 3.125C5.625 4.5057 4.5057 5.625 3.125 5.625C1.7443 5.625 0.625 4.5057 0.625 3.125C0.625 1.7443 1.7443 0.625 3.125 0.625Z" transform="translate(14.375 15.375)" stroke="#EEECD8" stroke-width="1.25"/>
</svg>
