<svg preserveAspectRatio="none" width="100%" height="100%" overflow="visible" style="display: block;" viewBox="0 0 15 15" fill="none" xmlns="http://www.w3.org/2000/svg">
<g id="Container">
<path id="Icon" d="M13.3333 15C13.7917 15 14.184 14.8368 14.5104 14.5104C14.8368 14.184 15 13.7917 15 13.3333V10H13.3333V13.3333H10V15H13.3333ZM5 15V13.3333H1.66667V10H3.57628e-07V13.3333C3.57628e-07 13.7917 0.163194 14.184 0.489583 14.5104C0.815972 14.8368 1.20833 15 1.66667 15H5ZM15 5V1.66667C15 1.20833 14.8368 0.815972 14.5104 0.489583C14.184 0.163194 13.7917 0 13.3333 0H10V1.66667H13.3333V5H15ZM1.66667 5V1.66667H5V0H1.66667C1.20833 0 0.815972 0.163194 0.489583 0.489583C0.163194 0.815972 3.57628e-07 1.20833 3.57628e-07 1.66667V5H1.66667ZM7.5 11.6667C8.65278 11.6667 9.63542 11.2604 10.4479 10.4479C11.2604 9.63542 11.6667 8.65278 11.6667 7.5C11.6667 6.34722 11.2604 5.36458 10.4479 4.55208C9.63542 3.73958 8.65278 3.33333 7.5 3.33333C6.34722 3.33333 5.36458 3.73958 4.55208 4.55208C3.73958 5.36458 3.33333 6.34722 3.33333 7.5C3.33333 8.65278 3.73958 9.63542 4.55208 10.4479C5.36458 11.2604 6.34722 11.6667 7.5 11.6667Z" fill="#F0FE6F"/>
</g>
</svg>
