<svg preserveAspectRatio="none" width="100%" height="100%" overflow="visible" style="display: block;" viewBox="0 0 24 24" fill="none" xmlns="http://www.w3.org/2000/svg">
<g id="apple" clip-path="url(#clip0_0_63)">
<path id="Vector" d="M18.546 12.9059C18.5157 8.44129 21.0245 8.32575 21.1373 8.25423C19.7261 6.19108 17.5309 5.86648 16.7496 5.83622C14.8818 5.64641 13.1048 6.91456 12.1557 6.91456C11.2094 6.91456 9.74595 5.83347 8.19722 5.86098C6.16158 5.89124 4.28274 7.0411 3.23191 8.86492C1.1165 12.5373 2.68999 17.9758 4.75314 20.9522C5.75995 22.4102 6.96208 24.0469 8.54108 23.9892C10.0596 23.9286 10.6345 23.0043 12.4721 23.0043C14.3096 23.0043 14.824 23.9892 16.4333 23.9561C18.0673 23.9259 19.1044 22.4707 20.1029 21.0072C21.2611 19.3154 21.737 17.7612 21.7645 17.6787C21.7287 17.6622 18.5762 15.8824 18.5432 12.9059H18.546ZM11.9962 5.99027C11.9962 2.67823 14.681 -0.0093565 17.9958 -0.0093565C17.9958 3.30543 15.3082 5.99027 11.9962 5.99027Z" fill="var(--fill-0, #F0E7FF)"/>
</g>
<defs>
<clipPath id="clip0_0_63">
<rect width="24" height="24" fill="white"/>
</clipPath>
</defs>
</svg>
