<svg preserveAspectRatio="none" width="100%" height="100%" overflow="visible" style="display: block;" viewBox="0 0 24 24" fill="none" xmlns="http://www.w3.org/2000/svg">
<g id="Email address">
<path id="Vector" d="M21.2963 2.40826C21.0646 2.35721 20.8282 2.3314 20.591 2.3313H3.40912C3.16691 2.3313 2.93105 2.35833 2.70388 2.40826C1.16773 2.67765 0 4.01738 0 5.63077V18.3958C0 20.2033 1.46525 21.6685 3.27271 21.6685H20.7273C22.5347 21.6685 24 20.2033 24 18.3958V5.63077C24.0001 4.01738 22.8324 2.67765 21.2963 2.40826ZM20.4527 4.26703L13.3016 10.9316C12.947 11.2621 12.4848 11.444 12.0001 11.444C11.5154 11.444 11.0532 11.262 10.6985 10.9315L3.54747 4.26703H20.4527ZM22.091 18.3957C22.091 19.1475 21.4793 19.7593 20.7274 19.7593H3.27271C2.52084 19.7593 1.90911 19.1475 1.90911 18.3957V5.63077C1.90911 5.54263 1.91822 5.45683 1.93422 5.37325L9.39688 12.3282C10.13 13.0115 11.065 13.3532 12.0001 13.3532C12.9351 13.3532 13.8701 13.0115 14.6033 12.3282L22.0659 5.37325C22.0819 5.4567 22.091 5.54263 22.091 5.63077V18.3957Z" fill="var(--fill-0, #EEECD8)"/>
</g>
</svg>
