<svg preserveAspectRatio="none" width="100%" height="100%" overflow="visible" style="display: block;" viewBox="0 0 24 24" fill="none" xmlns="http://www.w3.org/2000/svg">
<g id="Google" clip-path="url(#clip0_0_70)">
<path id="Vector" d="M4.99679 12.0816C4.99679 11.2968 5.12879 10.5444 5.36279 9.83881L1.2528 6.7302C0.426059 8.39279 -0.00282472 10.2248 1.40004e-05 12.0816C1.40004e-05 14.0046 0.450014 15.8184 1.2504 17.4288L5.35921 14.3148C5.11921 13.5948 4.9974 12.8406 4.99679 12.0816Z" fill="var(--fill-0, #EEECD8)"/>
<path id="Vector_2" d="M12.2167 4.9439C13.8542 4.94062 15.4427 5.50267 16.7137 6.5351L20.2675 3.02151C18.1021 1.15551 15.3259 0.00170898 12.2168 0.00170898C7.38915 0.00170898 3.23954 2.7359 1.25293 6.7301L5.36593 9.83873C6.31273 6.99112 9.01273 4.94334 12.2179 4.94334" fill="var(--fill-0, #FF8989)"/>
<path id="Vector_3" d="M12.269 19.0601C9.047 19.0601 6.3338 17.0255 5.381 14.1953L1.25 17.2853C3.24622 21.2549 7.41622 23.9711 12.269 23.9711C15.2624 23.9711 18.1208 22.9307 20.267 20.9795L16.3448 18.0107C15.239 18.6929 13.8452 19.0607 12.2678 19.0607" fill="var(--fill-0, #4ADE80)"/>
<path id="Vector_4" d="M23.9868 11.9677C23.9868 11.2585 23.8746 10.4941 23.7078 9.78491H12.2676V14.4229H18.852C18.5238 16.0045 17.628 17.2201 16.3452 18.0109L20.2668 20.9797C22.521 18.9319 23.9868 15.8809 23.9868 11.9677Z" fill="var(--fill-0, #38BDF8)"/>
</g>
<defs>
<clipPath id="clip0_0_70">
<rect width="24" height="24" fill="white"/>
</clipPath>
</defs>
</svg>
