<svg width="80.0918" height="80.1726" viewBox="-1 -1 80.0918 80.1726" fill="none" xmlns="http://www.w3.org/2000/svg">
<g id="Group 1940699349">
<path id="Vector" d="M23.6163 11.4028C23.661 11.4012 23.7056 11.4 23.7503 11.3991C30.1105 11.3039 36.9562 11.4282 43.3405 11.4327L50.4876 11.4268C51.8815 11.4219 53.2704 11.3878 54.6663 11.4576C56.1818 11.5334 57.2763 11.9406 57.4161 13.6461C57.5521 15.3043 57.5006 16.976 57.4776 18.6392C57.4288 21.0551 57.4145 23.4716 57.4349 25.8878L57.5028 63.3968C57.528 65.752 57.0407 67.1135 54.4455 67.1416L32.7908 67.1444C29.4834 67.1397 26.1488 67.1702 22.8681 67.1372C20.1284 67.1097 20.3071 64.7918 20.3134 62.7795C20.3165 61.7823 20.3173 60.7666 20.3171 59.7714L20.3022 50.216L20.3094 24.8286C20.315 21.3272 20.2891 17.8227 20.3025 14.3221C20.3434 13.8109 20.2706 13.2052 20.518 12.74C21.1837 11.4882 22.3657 11.4316 23.6163 11.4028ZM53.7199 64.4574C54.8399 64.3867 54.7951 63.4867 54.8329 62.6288C54.93 60.416 54.7783 58.1857 54.796 55.9799C54.8592 48.513 54.8747 41.0458 54.8426 33.5787L54.8331 20.6254C54.8231 19.2716 55.057 15.2906 54.495 14.3427C53.343 14.0187 49.8479 14.1748 48.3904 14.1557C40.5501 14.111 32.7095 14.1194 24.8694 14.1811C23.3792 14.1938 22.9499 14.0601 22.9441 15.7431C22.9335 18.8569 22.941 21.9706 22.9427 25.0846L22.9409 42.8633L22.945 55.3648C22.941 56.6153 22.6979 63.6159 23.3067 64.231C24.4659 64.5543 27.3581 64.4399 28.7362 64.4576C34.8775 64.5365 41.0626 64.3945 47.2087 64.4377C49.2712 64.4522 51.7041 64.373 53.7199 64.4574Z" fill="var(--fill-0, #F0FE6F)"/>
<path id="Vector_2" d="M33.4701 14.7877C35.4222 14.7714 37.402 14.7887 39.3763 14.7979C43.3312 14.8164 45.3886 14.3 48.9065 16.4383C51.3076 17.8976 53.2527 20.516 53.9049 23.2106C54.3168 24.9122 54.1997 29.1221 54.1989 31.0159L54.1919 43.2479L54.1993 50.3295C54.201 53.6167 54.4195 55.6287 52.5048 58.5361C50.4842 61.6042 48.1807 62.9953 44.5993 63.8156C42.542 63.8709 40.4922 63.8342 38.4252 63.8516C34.2497 63.8868 31.3695 64.1558 27.8561 61.4257C25.7806 59.8129 23.8885 56.819 23.6238 54.2098C23.4975 52.9655 23.5688 50.7801 23.5694 49.4573L23.5724 40.5481L23.572 30.2222C23.5703 28.3098 23.3971 25.012 23.8023 23.252C24.8085 18.8805 28.9846 15.2552 33.4701 14.7877ZM25.2532 30.2185L25.2712 30.2612C25.6747 31.2347 25.7594 32.555 26.0771 33.5689C27.3147 37.5189 28.756 38.8724 31.7859 41.1598C31.791 39.6398 31.7696 39.1968 32.174 37.7727C30.4345 36.0777 29.0953 33.8716 28.5921 31.4803C30.1652 31.0482 31.0874 30.8805 32.7068 30.6846C35.694 30.8503 37.908 31.6999 39.9053 33.9234C40.5506 34.6387 41.0895 35.4433 41.5051 36.3124C41.7491 36.8184 42.3459 38.6569 42.5632 38.8705C43.0822 38.891 44.3881 37.8454 44.7786 37.4847C44.8785 37.393 44.9761 37.299 45.0716 37.2027C44.5713 36.1733 44.1983 35.164 43.6381 34.1631C42.1246 31.5099 39.6871 29.507 36.7907 28.5367C35.468 28.0789 33.5479 27.7694 32.1597 27.9554C29.5896 28.1041 27.3731 28.6737 25.2532 30.2185ZM38.6365 35.7137C37.9892 35.8271 37.4544 36.2826 37.2395 36.9036C37.0246 37.5244 37.1633 38.2131 37.6019 38.7024C38.0404 39.1917 38.7098 39.4047 39.3505 39.2587C40.3071 39.0408 40.9155 38.0998 40.7218 37.138C40.5281 36.1763 39.6029 35.5443 38.6365 35.7137ZM35.5532 38.4742C36.1401 36.38 36.9508 34.8063 38.6247 33.3403C38.0832 32.9348 36.8718 31.9327 36.2747 31.8636C35.5489 32.0395 34.7528 33.3074 34.3545 33.9146C32.8866 36.152 32.3889 39.1058 32.569 41.7374C32.8283 45.5273 34.9851 49.2842 38.1242 51.4251C38.37 51.5927 38.6484 51.801 38.8744 51.9945C41.889 49.8382 43.796 48.9413 44.8694 44.9923C45.0665 44.267 45.3653 42.5294 45.5873 41.956C43.7819 42.9164 42.5286 42.7108 41.94 44.7942C41.5274 46.2548 40.158 47.8104 38.8652 48.6022C37.4836 47.2056 36.252 45.1638 35.731 43.2533C35.7455 42.7332 35.6548 42.6492 35.9154 42.322C36.1811 42.9239 36.4663 43.1088 37.121 43.1911C43.4383 43.9846 49.9252 39.6351 51.4561 33.4241C51.7408 32.2692 51.918 31.2506 52.0602 30.0312C49.8289 28.1432 45.391 27.8194 42.6377 28.3558C42.1348 28.4538 40.1985 28.9237 39.8902 29.2532C40.1406 29.5577 41.7081 30.8175 42.1008 31.1432C43.6741 30.7343 48.0047 30.3754 48.9749 31.8328C49.0166 32.0625 48.9916 32.263 48.9064 32.4783C47.901 34.9918 46.2338 37.4188 43.8772 38.8418C41.5514 40.2461 38.3968 40.5492 35.8343 39.6875C35.6444 39.4314 35.6033 38.8214 35.5532 38.4742Z" fill="var(--fill-0, #F0FE6F)"/>
<path id="Vector_3" d="M35.5532 38.4736C35.6033 38.8209 35.6444 39.4308 35.8343 39.687C35.6906 40.418 35.9487 41.6059 35.9154 42.3214C35.6548 42.6486 35.7455 42.7326 35.731 43.2527C35.0366 41.7666 35.1883 40.0091 35.5532 38.4736Z" fill="var(--fill-0, #FEFEFE)" fill-opacity="0.921569"/>
<path id="Vector_4" d="M54.028 57.0527L54.2351 57.1864C54.229 57.9434 54.2644 63.3206 54.0687 63.5343C53.5318 64.1196 49.0475 63.8069 48.0311 63.8469C47.7153 63.9142 47.7153 63.965 47.4328 63.87C47.5115 63.4173 48.7157 62.8574 49.213 62.5628C50.7471 61.6536 51.9326 60.3261 52.9387 58.8726C53.322 58.3191 53.519 57.5605 54.028 57.0527Z" fill="var(--fill-0, #F0FE6F)"/>
<path id="Vector_5" d="M23.6379 57.0469C24.0835 57.2065 24.2854 58.317 24.8831 59.0584C25.7996 60.1954 26.3444 60.9585 27.514 61.9107C28.1773 62.4507 30.017 63.2617 30.2877 63.736L30.2308 63.9324C28.1023 63.6703 25.96 64.055 23.8853 63.6719C23.3657 63.576 23.5784 61.1576 23.611 60.6362C23.6594 59.8613 23.4012 57.5634 23.6379 57.0469Z" fill="var(--fill-0, #F0FE6F)"/>
<path id="Vector_6" d="M29.7957 14.691C30.1107 14.6627 30.0223 14.6225 30.2255 14.7736C30.1948 14.9458 30.1667 15.0781 29.9932 15.1688C27.0628 16.7001 25.4155 18.3131 23.8675 21.3193L23.86 21.33L23.7452 21.3339C23.5038 21.033 23.48 15.3731 23.7074 14.9817C24.427 14.6751 28.3543 14.8917 29.7957 14.691Z" fill="var(--fill-0, #F0FE6F)"/>
<path id="Vector_7" d="M47.5808 14.7488C47.6929 14.7467 48.8911 14.7869 48.9802 14.8133C50.0034 15.1155 54.1274 14.0198 54.1992 15.5089C54.2903 17.4008 53.9468 19.5293 54.2548 21.3321C54.193 21.45 54.1675 21.4485 54.0558 21.5409C53.9934 21.5089 53.931 21.477 53.8686 21.445C53.483 20.5431 53.1038 19.8061 52.5299 19.0366C51.9104 18.2013 51.1792 17.455 50.3568 16.8187C49.6565 16.2665 47.9117 15.3077 47.5808 14.7488Z" fill="var(--fill-0, #F0FE6F)"/>
<path id="Vector_8" d="M59.3425 20.0879C60.3632 20.4123 61.3803 20.5273 62.4126 20.8922C65.6342 22.0311 67.9589 25.7936 68.0284 29.1692C68.0387 29.584 68.0051 29.9988 67.928 30.4066C67.0723 34.9991 65.7637 40.0595 64.7671 44.6825L63.459 50.738C62.7434 54.0217 62.676 54.6661 60.3222 57.132C59.9907 57.4342 59.4488 57.8366 59.0844 58.1253C59.1215 54.4513 59.1269 50.7771 59.1003 47.103C59.0979 45.4416 59.0491 43.4756 59.1278 41.8377C59.4557 41.489 60.6832 40.6536 61.1498 40.3249C63.5192 38.6555 64.4967 36.8674 65.4358 34.1369C63.0876 31.9759 61.9991 32.0492 59.2362 30.9995C59.1195 30.7316 59.0962 30.2636 59.097 29.9589C59.1063 26.7981 59.0547 23.6287 59.132 20.4702C59.135 20.3474 59.2607 20.1744 59.3425 20.0879Z" fill="var(--fill-0, #F0FE6F)"/>
<path id="Vector_9" d="M18.1669 20.1084L18.3857 20.1714C18.6799 20.4972 18.4784 21.4162 18.4699 21.8543C18.4162 24.6202 18.5888 27.388 18.5516 30.1557C18.5638 30.8007 18.4107 30.9966 17.7691 31.1358C15.4379 31.6413 13.8374 32.6737 12.0601 34.2622C13.1007 36.7645 14.2576 38.7695 16.4687 40.3865C17.1059 40.8526 17.9063 41.338 18.4706 41.7787C18.6837 46.6961 18.3162 51.8548 18.4929 56.7958C18.5026 57.0667 18.5053 57.3696 18.4538 57.6351L18.2355 57.7139C17.9284 57.6422 17.6936 57.3555 17.463 57.1277C15.9411 55.9267 15.113 54.2223 14.7012 52.3857C13.7036 47.9363 12.7557 43.4428 11.7669 38.9951L10.4577 33.1276C9.67391 29.6387 9.11557 27.8568 11.1169 24.5231C12.9302 21.5024 14.9958 20.9283 18.1669 20.1084Z" fill="var(--fill-0, #F0FE6F)"/>
<path id="Vector_10" d="M70.2123 19.833C70.9295 19.8528 71.7897 20.216 72.2207 20.8087C72.6649 21.4197 72.4702 22.0129 72.3372 22.6954C71.7688 25.6106 71.0718 28.4999 70.439 31.4009L66.6498 48.6378L64.6738 57.528C64.2954 59.258 63.96 61.0707 63.4584 62.763C63.0186 64.2468 61.6784 64.0729 60.5292 63.8203C59.8425 63.7735 59.3548 63.7256 59.1273 62.9856C58.9742 62.4875 58.9333 62.1569 59.1675 61.6755C59.9667 61.0345 61.2421 62.4911 61.7162 61.0516C61.9984 60.1949 62.1523 59.164 62.3511 58.2652C62.8844 55.7701 63.4338 53.2783 63.9993 50.7902C66.0737 41.5558 68.0785 32.3029 70.1437 23.0689C70.4558 21.6731 68.7011 22.6818 70.2123 19.833Z" fill="var(--fill-0, #F0FE6F)"/>
<path id="Vector_11" d="M18.252 17.3428L18.4045 17.3804C18.5933 17.6684 18.6151 18.9504 18.6727 19.4589C17.1092 19.8119 8.62963 21.5474 7.83695 22.0648C7.31142 22.9648 7.86564 24.3551 8.10162 25.3664C8.42994 26.7392 8.73656 28.117 9.02139 29.4994L13.1586 48.324C13.7217 50.8886 14.7188 54.5736 15.0081 57.0223L13.7418 56.1789C12.6186 55.4728 12.5064 54.8288 12.2306 53.6057C11.945 52.3388 11.6753 51.0622 11.39 49.7951L8.96936 38.8001L6.62836 28.1434C6.15681 26.0449 5.63559 23.9522 5.24075 21.8388C5.03458 20.8765 5.84895 20.273 6.6989 20.0398C10.4924 18.999 14.4781 18.4459 18.252 17.3428Z" fill="var(--fill-0, #F0FE6F)"/>
<path id="Vector_12" d="M38.7843 0C39.0224 0.00483274 39.168 0.0779403 39.3362 0.247909C41.531 2.46562 43.7227 4.68642 45.9336 6.88881C46.4689 7.42206 47.1342 8.02821 47.5838 8.61811L47.4415 8.76854C46.5436 9.05357 43.8935 9.01635 43.1208 8.56299C41.8412 7.81228 40.1251 5.88576 39.1599 4.74349C39.0923 4.72796 39.0248 4.71243 38.9572 4.69691C38.1463 5.28208 35.5957 8.20846 34.952 8.54901C33.868 9.12246 31.5448 8.8036 30.1289 8.97861C30.7822 7.88693 32.7196 6.07537 33.7246 5.06964L38.7843 0Z" fill="var(--fill-0, #F0FE6F)"/>
<path id="Vector_13" d="M30.7452 69.6714C31.2455 69.6727 31.7459 69.668 32.2463 69.6573C36.451 69.6024 36.1938 70.779 38.9611 73.4753C39.8972 72.4131 41.7687 70.3995 42.9156 69.686C43.5756 69.6764 46.9178 69.3917 47.011 69.9613C46.7744 70.44 45.5277 71.6057 45.1039 72.0334C43.0993 74.0453 40.9958 76.2274 38.9461 78.1726C36.6233 75.8152 33.1748 72.4651 30.8104 69.9584C30.7845 69.8448 30.7628 69.7491 30.7452 69.6714Z" fill="var(--fill-0, #F0FE6F)"/>
<path id="Vector_14" d="M71.4298 32.7871C71.4442 32.7888 71.4587 32.7897 71.473 32.7921C71.4966 32.7964 71.5197 32.8024 71.5431 32.8072C72.3395 32.9669 77.1489 38.1306 78.0918 39.0912C77.3534 39.6132 75.7899 41.2554 75.1014 41.9474C73.4334 43.634 71.7529 45.3082 70.0601 46.9699C69.6161 47.4155 68.6008 48.6592 68.0725 48.7501L68.0128 48.604C68.1114 47.8984 69.0237 43.7489 69.2857 43.2227C69.7085 42.3739 72.4682 39.8045 73.2987 39.0293C72.2671 38.0735 71.6649 37.499 70.7434 36.4197C70.9076 35.2474 71.2393 34.0229 71.4298 32.7871Z" fill="var(--fill-0, #F0FE6F)"/>
<path id="Vector_15" d="M6.12904 32.8125C6.47741 33.3151 6.79411 35.5205 7.18135 36.5103C6.68152 37.0876 5.19879 38.4417 4.58246 39.0463C5.76443 39.999 8.45698 42.5165 8.70016 43.9115C8.80422 44.5084 9.68717 48.2448 9.61077 48.4977L9.4587 48.5369C9.03218 48.2542 8.26923 47.4123 7.87901 47.0052C5.27622 44.5607 2.56639 41.6944 0 39.1512C0.674527 37.9418 4.9043 33.9672 6.12904 32.8125Z" fill="var(--fill-0, #F0FE6F)"/>
<path id="Vector_16" d="M8.89305 51.833C9.29674 52.0931 10.3153 54.9636 11.0252 55.7495C12.1548 57 12.6117 57.2912 13.9884 58.2235C14.004 58.2867 14.0196 58.3498 14.0352 58.4129C13.4688 58.8164 12.3438 59.517 11.909 59.928C10.2799 61.4677 10.0179 62.9395 9.11803 64.6712C8.80668 64.64 8.54047 63.8194 8.39744 63.4682C7.49598 61.2542 5.97192 59.4892 3.81919 58.3858C7.05229 56.1086 7.37588 55.4947 8.89305 51.833Z" fill="var(--fill-0, #F0FE6F)"/>
<path id="Vector_17" d="M67.7312 8.40625C68.0038 8.56501 67.8973 8.45396 67.9881 8.72727C68.9146 11.5176 70.3272 13.4548 72.9142 14.8749C70.1313 16.5165 68.7947 18.3723 67.9098 21.4699C67.1609 20.983 66.933 17.13 62.609 14.9248C65.573 13.2866 66.5999 11.4319 67.7312 8.40625Z" fill="var(--fill-0, #F0FE6F)"/>
<path id="Vector_18" d="M59.0932 17.377C60.0823 17.4025 64.0176 18.4777 64.9771 18.9419C65.2794 19.5111 65.6513 20.2614 65.8709 20.8587C64.7273 20.8951 60.5475 19.7051 59.0485 19.4698C59.0584 18.6715 59.1491 18.2535 59.0932 17.377Z" fill="var(--fill-0, #F0FE6F)"/>
<path id="Vector_19" d="M15.2866 59.4684C15.3069 59.4673 15.3273 59.4663 15.3476 59.4653C15.3712 59.4342 15.6889 59.5495 15.6887 59.5484C15.8461 60.3029 15.8476 60.9183 16.4132 61.4945C17.0522 62.1455 17.8179 61.2263 18.316 61.6136C18.6347 61.8615 18.5398 63.03 18.5342 63.4419C17.8887 63.694 17.7081 63.7516 17.0177 63.8645C14.3299 64.4826 14.2592 62.5762 13.6359 60.5055C14.2646 60.1682 14.6978 59.8712 15.2866 59.4684Z" fill="var(--fill-0, #F0FE6F)"/>
<path id="Vector_20" d="M59.1603 33.2891C60.0342 33.5526 61.3301 33.9797 62.0998 34.4335C63.2538 35.1139 61.5004 36.7499 60.9663 37.3541C60.4761 37.8766 59.6978 38.4569 59.1196 38.915C59.0529 38.2155 59.0908 33.9964 59.1603 33.2891Z" fill="var(--fill-0, #F0FE6F)"/>
<path id="Vector_21" d="M12.893 21.2266L13.0611 21.2423L13.1589 21.3712C13.0782 21.7068 12.4849 22.1641 12.2043 22.4255C10.7014 23.8255 10.0745 25.391 9.44348 27.2897C9.17634 27.1742 9.20966 27.1103 9.04421 26.811C8.86334 25.8732 8.13155 23.3709 8.31519 22.6266C8.37185 22.5537 8.44053 22.4656 8.52125 22.3619C9.87699 21.873 11.4863 21.8593 12.8441 21.249L12.893 21.2266Z" fill="var(--fill-0, #F0FE6F)"/>
<path id="Vector_22" d="M18.0671 33.3584C18.2921 33.3948 18.2139 33.3727 18.4065 33.5265C18.5394 34.0248 18.5338 37.9934 18.3849 38.5552L18.1811 38.591C17.7124 38.3871 17.2812 37.9158 16.9024 37.554C15.9079 36.4616 15.6288 36.073 14.9554 34.7604C15.8426 34.1779 17.0597 33.7677 18.0671 33.3584Z" fill="var(--fill-0, #F0FE6F)"/>
<path id="Vector_23" d="M64.6182 21.3254C65.0056 21.3176 65.5994 21.5748 65.9847 21.7149C67.9702 24.8827 68.419 22.3805 69.4737 22.5317C69.6942 23.0465 69.062 25.2915 68.8903 25.9342C68.7573 26.2404 68.9445 26.9118 68.6023 27.2756C68.2963 27.2203 68.0234 26.4461 67.9044 26.1389C67.2824 24.5334 66.5451 23.1576 65.1387 22.0974C64.9074 21.923 64.7274 21.7973 64.5563 21.555L64.6182 21.3254Z" fill="var(--fill-0, #F0FE6F)"/>
<path id="Vector_24" d="M61.9565 56.1621C62.2225 56.1878 62.1413 56.1401 62.2892 56.3122C61.9645 57.2403 61.4937 60.1344 60.9505 61.0788C60.8549 61.2449 60.1565 61.1237 59.8862 61.0261C58.6935 60.5691 59.0338 59.7937 59.1546 58.6915C60.6093 57.5794 60.7218 57.3577 61.9565 56.1621Z" fill="var(--fill-0, #F0FE6F)"/>
<path id="Vector_25" d="M15.5539 56.0234C15.8402 56.1279 18.1071 58.3323 18.4193 58.6785C18.4728 59.3084 18.6648 60.3847 18.2908 60.8488C17.7047 60.9934 17.2747 61.3244 16.7027 61.0017C16.4203 60.312 15.5729 56.7383 15.5539 56.0234Z" fill="var(--fill-0, #F0FE6F)"/>
</g>
</svg>
