<svg width="16" height="16" viewBox="0 0 16 16" fill="none" xmlns="http://www.w3.org/2000/svg">
  <path d="M6.42383 1.59375C6.51249 1.61364 6.59303 1.66237 6.65234 1.7334L8.19434 3.58301H13.666C14.2643 3.58301 14.749 4.06867 14.749 4.66699V13.333C14.749 13.9313 14.2643 14.417 13.666 14.417H2.33301C1.73488 14.4168 1.24902 13.9312 1.24902 13.333V2.66699C1.24902 2.06881 1.73488 1.58322 2.33301 1.58301H6.33301L6.42383 1.59375ZM8 6.58301C7.76988 6.58301 7.58301 6.76988 7.58301 7V8.58301H6C5.76988 8.58301 5.58301 8.76988 5.58301 9C5.58301 9.23012 5.76988 9.41699 6 9.41699H7.58301V11C7.58301 11.2301 7.76988 11.417 8 11.417C8.23012 11.417 8.41699 11.2301 8.41699 11V9.41699H10C10.2301 9.41699 10.417 9.23012 10.417 9C10.417 8.76988 10.2301 8.58301 10 8.58301H8.41699V7C8.41699 6.76988 8.23012 6.58301 8 6.58301Z" fill="#F0FE6F"/>
</svg>
