<svg preserveAspectRatio="none" width="100%" height="100%" overflow="visible" style="display: block;" viewBox="0 0 91.8939 79.8345" fill="none" xmlns="http://www.w3.org/2000/svg">
<g id="Group 1940699300">
<g id="Vector" filter="url(#filter0_f_0_139)">
<path d="M5.0474 30.2239L6.20091 31.3774L5.0474 32.5309L3.89388 31.3774L5.0474 30.2239Z" fill="#E8FF70"/>
</g>
<g id="Vector_2" filter="url(#filter1_f_0_139)">
<path d="M24.2149 0.7L25.767 2.25213L24.2149 3.80425L22.6627 2.25213L24.2149 0.7Z" fill="#E8FF70"/>
</g>
<path id="Vector_3" d="M10.6453 57.5262L12.1974 59.0784L10.6453 60.6305L9.09311 59.0784L10.6453 57.5262Z" fill="#E8FF70"/>
<g id="Vector_4" filter="url(#filter2_f_0_139)">
<path d="M81.456 56.3086L82.0648 56.9173L81.456 57.5261L80.8472 56.9173L81.456 56.3086Z" fill="#E8FF70"/>
</g>
<path id="Vector_5" d="M77.2726 16.1878L79.1401 18.0553L77.2726 19.9228L75.405 18.0553L77.2726 16.1878Z" fill="#E8FF70"/>
<path id="Vector 323" d="M77.023 69.6302L49.6949 79.4779V44.6478L77.023 35.4359V69.6302Z" fill="#1B1B19" stroke="url(#paint0_linear_0_139)" stroke-width="0.5"/>
<path id="Vector 324" d="M49.195 44.6737V79.4852L18.5104 69.0848V35.5516L49.195 44.6737Z" fill="#24251B" stroke="url(#paint1_linear_0_139)" stroke-width="0.5"/>
<g id="Vector_6" filter="url(#filter3_d_0_139)">
<path d="M37.3925 40.5499C35.2118 39.9223 34.3747 39.5073 32.0646 39.0114L30.947 38.7175L18.8234 35.0883L18.3385 35.2402C16.8596 36.6819 15.5924 38.037 13.7997 39.923L13.463 40.3305C10.8248 42.8707 8.78895 44.9022 6.6 46.8226L17.4655 50.3143L18.5851 50.5854L21.9358 51.6137C26.4692 53.3418 33.7737 55.4781 38.5261 57.0206C40.44 54.7209 47.3213 46.2287 49.2396 44.7283C48.307 43.5143 39.4618 41.1464 37.3925 40.5499Z" fill="url(#paint2_linear_0_139)"/>
<path d="M30.9037 38.8617L30.9086 38.8627L32.0268 39.1566L32.0326 39.1586C34.338 39.6535 35.1516 40.0607 37.351 40.6937C38.3888 40.9929 41.1127 41.7327 43.6967 42.5502C44.9887 42.9589 46.2426 43.3867 47.2299 43.7865C47.7236 43.9865 48.1479 44.1785 48.476 44.3568C48.7217 44.4903 48.9032 44.6104 49.0199 44.7142C48.5237 45.1317 47.7801 45.9021 46.9145 46.8578C45.968 47.9026 44.8671 49.1784 43.767 50.4779C41.6154 53.0195 39.4611 55.6577 38.474 56.8461C33.7121 55.3037 26.4875 53.1885 21.9896 51.474V51.473L21.9799 51.4701L18.6293 50.4418L18.6205 50.4398L17.5063 50.1693L6.89492 46.7592C9.01296 44.8868 11.0108 42.9 13.5668 40.4388L13.5736 40.433L13.5785 40.4261L13.9086 40.0267C15.6925 38.15 16.9526 36.8017 18.4184 35.3715L18.8246 35.2445L30.9037 38.8617Z" stroke="url(#paint3_linear_0_139)" stroke-width="0.3"/>
</g>
<g id="Vector_7" filter="url(#filter4_f_0_139)">
<path d="M31.8131 39.3147C34.0564 39.5652 35.2133 39.9226 37.3939 40.5501C35.5817 41.4072 33.9517 40.5558 32.0256 39.8691L31.8131 39.3147Z" fill="#464921"/>
</g>
<path id="Vector_8" d="M67.8638 26.5043C75.3258 28.6391 82.8094 30.6963 90.314 32.6762C89.103 32.9359 87.2813 33.3178 85.5044 33.7182C83.3975 34.193 81.3287 34.7018 80.398 35.0786L80.1929 35.1616L80.3462 35.3217C81.7262 36.7623 84.0102 39.0091 86.2339 41.2387C88.371 43.3815 90.4495 45.5082 91.6324 46.8979C81.7395 50.0786 70.3095 53.3559 60.6871 56.8627C59.7404 55.866 57.8618 53.7322 56.0533 51.6997C55.128 50.6597 54.2217 49.6471 53.4703 48.8295C52.7289 48.0229 52.131 47.3977 51.815 47.1274L50.0884 45.0688L50.0816 45.061L50.0738 45.0542L49.6695 44.687C49.8582 44.5314 50.136 44.3584 50.4966 44.1752C50.9375 43.9513 51.4881 43.7158 52.1167 43.4741C53.3739 42.9906 54.9349 42.4863 56.5396 42.0063C59.7498 41.046 63.1197 40.1864 64.5728 39.7846L64.5835 39.7817L64.5923 39.7778L65.771 39.268L65.8453 39.2358L65.8589 39.1567C66.185 37.3443 66.7374 35.7245 66.3628 33.8471L66.9742 31.0102V31.0073L67.8638 26.5043Z" fill="#2C2F18" stroke="url(#paint4_linear_0_139)" stroke-width="0.3"/>
<path id="Vector_9" d="M66.8276 30.9787L67.7488 26.3159C75.4629 28.524 83.2003 30.6493 90.9599 32.6919C88.6742 33.1947 82.2887 34.4752 80.455 35.2175L79.7304 35.2044C77.1175 34.0075 71.0106 32.8395 66.8276 30.9787Z" fill="#242615"/>
<path id="Vector_10" d="M66.2075 33.8439L66.8243 30.9788C71.0073 32.8397 77.1142 34.0077 79.7271 35.2046C74.8249 36.4483 70.5302 37.6189 65.7086 39.1303C66.0415 37.2795 66.5878 35.6981 66.2075 33.8439Z" fill="#161712"/>
<g id="Vector_11" filter="url(#filter5_f_0_139)">
<path d="M64.5332 39.6406L64.3798 40.4744C61.9443 41.3573 51.3438 44.2491 49.9732 45.1653L49.4449 44.6857C51.0276 43.0837 61.6363 40.4416 64.5332 39.6406Z" fill="#464921"/>
</g>
<path id="Vector_12" d="M33.0231 31.4895L32.0661 35.0549L32.0641 35.0637C31.851 36.2921 31.6956 37.1421 31.3336 38.3342L30.9293 38.6077L18.8522 34.9924L18.8229 34.9836L18.7936 34.9934L18.3405 35.134C17.2757 34.7372 14.7234 34.0987 13.5631 33.7766C12.5206 33.4128 11.7745 33.1101 10.7838 32.6643C10.988 32.3039 11.2994 32.0817 11.6979 31.8967C11.9145 31.7962 12.1538 31.7076 12.4137 31.6135C12.6692 31.521 12.9436 31.4223 13.2282 31.3039C13.8334 31.2281 15.1549 30.8977 16.859 30.4319C18.5813 29.9611 20.7039 29.3503 22.8942 28.7209C27.1872 27.4873 31.7364 26.182 34.0563 25.7063L33.0231 31.4895Z" fill="url(#paint5_linear_0_139)" stroke="url(#paint6_linear_0_139)" stroke-width="0.2"/>
<path id="Vector_13" d="M18.8225 35.0887C23.3608 34.0639 28.2198 32.5638 32.9302 31.4654L32.639 35.0977C32.4752 36.338 32.5866 37.2863 32.304 38.502L32.1143 39.123L18.8225 35.0887Z" fill="#111110"/>
<g id="Subtract">
<mask id="path-17-inside-1_0_139" fill="white">
<path d="M67.996 6.87769C69.1003 6.90235 69.8967 7.81302 69.7753 8.91089L66.451 38.9666L48.2645 44.7908L31.9901 39.4002L35.4462 8.14429C35.5676 7.04642 36.5616 6.17628 37.6659 6.20093L67.996 6.87769Z"/>
</mask>
<g filter="url(#filter6_i_0_139)">
<path d="M67.996 6.87769C69.1003 6.90235 69.8967 7.81302 69.7753 8.91089L66.451 38.9666L48.2645 44.7908L31.9901 39.4002L35.4462 8.14429C35.5676 7.04642 36.5616 6.17628 37.6659 6.20093L67.996 6.87769Z" fill="url(#paint7_linear_0_139)"/>
</g>
<path d="M67.996 6.87769L68.0071 6.37782L68.0071 6.37782L67.996 6.87769ZM69.7753 8.91089L70.2722 8.96586V8.96585L69.7753 8.91089ZM66.451 38.9666L66.6035 39.4427L66.9124 39.3438L66.948 39.0215L66.451 38.9666ZM48.2645 44.7908L48.1073 45.2654L48.2619 45.3166L48.417 45.267L48.2645 44.7908ZM31.9901 39.4002L31.4931 39.3452L31.4487 39.7475L31.8329 39.8748L31.9901 39.4002ZM35.4462 8.14429L34.9492 8.08933L34.9492 8.08934L35.4462 8.14429ZM37.6659 6.20093L37.6547 6.70081L37.6547 6.70081L37.6659 6.20093ZM67.996 6.87769L67.9848 7.37757C68.7954 7.39566 69.3675 8.04937 69.2783 8.85594L69.7753 8.91089L70.2722 8.96585C70.4259 7.57667 69.4052 6.40903 68.0071 6.37782L67.996 6.87769ZM69.7753 8.91089L69.2783 8.85593L65.9541 38.9116L66.451 38.9666L66.948 39.0215L70.2722 8.96586L69.7753 8.91089ZM66.451 38.9666L66.2986 38.4904L48.112 44.3146L48.2645 44.7908L48.417 45.267L66.6035 39.4427L66.451 38.9666ZM48.2645 44.7908L48.4217 44.3161L32.1473 38.9255L31.9901 39.4002L31.8329 39.8748L48.1073 45.2654L48.2645 44.7908ZM31.9901 39.4002L32.4871 39.4551L35.9431 8.19924L35.4462 8.14429L34.9492 8.08934L31.4931 39.3452L31.9901 39.4002ZM35.4462 8.14429L35.9431 8.19925C36.0361 7.35902 36.8094 6.68194 37.6547 6.70081L37.6659 6.20093L37.6771 5.70106C36.3137 5.67062 35.0991 6.73381 34.9492 8.08933L35.4462 8.14429ZM37.6659 6.20093L37.6547 6.70081L67.9848 7.37757L67.996 6.87769L68.0071 6.37782L37.677 5.70106L37.6659 6.20093Z" fill="url(#paint8_linear_0_139)" mask="url(#path-17-inside-1_0_139)"/>
</g>
<path id="Vector 327" d="M67.8754 7.39216L62.2142 7.34904L61.6404 11.3767L62.6876 14.8259C63.353 17.2383 66.8718 17.6962 68.3943 17.6212L69.3063 8.99456C69.3964 8.14259 68.7321 7.39869 67.8754 7.39216Z" fill="url(#paint9_linear_0_139)"/>
<path id="Vector 326" d="M62.9965 40.2717L79.8392 35.2311" stroke="url(#paint10_linear_0_139)" stroke-width="0.3"/>
<path id="Vector 328" d="M35.2333 16.1877C40.8296 16.2146 42.8525 9.89016 42.9808 6.9324H37.9306C37.0186 6.9324 36.2507 7.61457 36.1432 8.52027L35.2333 16.1877Z" fill="url(#paint11_linear_0_139)"/>
<path id="?" d="M48.1185 30.3513C48.2239 29.3987 48.4529 28.6605 48.8055 28.137C49.1728 27.6017 49.7239 27.1604 50.4588 26.8132C51.01 26.5527 51.4311 26.318 51.7221 26.1091C52.0278 25.8885 52.2416 25.6509 52.3635 25.3966C52.4868 25.1289 52.5705 24.7966 52.6144 24.3997C52.6906 23.7116 52.522 23.117 52.1086 22.6159C51.7085 22.1163 51.1049 21.8218 50.2978 21.7325C49.3186 21.6241 48.5366 21.7921 47.9517 22.2363C47.38 22.682 46.9885 23.3754 46.7772 24.3163L45.0041 23.9996C45.1801 23.1351 45.5172 22.3888 46.0153 21.7609C46.5134 21.1329 47.1409 20.6666 47.8979 20.3619C48.6549 20.0573 49.5163 19.9584 50.4822 20.0653C51.3423 20.1604 52.0775 20.4159 52.6878 20.8317C53.3113 21.2489 53.7746 21.7823 54.0778 22.432C54.3809 23.0817 54.4886 23.8034 54.4007 24.5973C54.3392 25.1531 54.1932 25.6258 53.9625 26.0155C53.7451 26.4066 53.4321 26.7537 53.0236 27.0568C52.615 27.3598 52.1058 27.6651 51.4958 27.9726C50.9285 28.2581 50.5243 28.5817 50.2834 28.9434C50.0557 29.3067 49.903 29.8389 49.8254 30.5402L48.1185 30.3513ZM47.3595 34.3056L47.6077 32.0628L49.8505 32.311L49.6023 34.5538L47.3595 34.3056Z" fill="#F1FE70"/>
</g>
<defs>
<filter id="filter0_f_0_139" x="3.49388" y="29.8239" width="3.10703" height="3.10696" filterUnits="userSpaceOnUse" color-interpolation-filters="sRGB">
<feFlood flood-opacity="0" result="BackgroundImageFix"/>
<feBlend mode="normal" in="SourceGraphic" in2="BackgroundImageFix" result="shape"/>
<feGaussianBlur stdDeviation="0.2" result="effect1_foregroundBlur_0_139"/>
</filter>
<filter id="filter1_f_0_139" x="21.9627" y="0" width="4.50434" height="4.50425" filterUnits="userSpaceOnUse" color-interpolation-filters="sRGB">
<feFlood flood-opacity="0" result="BackgroundImageFix"/>
<feBlend mode="normal" in="SourceGraphic" in2="BackgroundImageFix" result="shape"/>
<feGaussianBlur stdDeviation="0.35" result="effect1_foregroundBlur_0_139"/>
</filter>
<filter id="filter2_f_0_139" x="80.4472" y="55.9086" width="2.01758" height="2.01754" filterUnits="userSpaceOnUse" color-interpolation-filters="sRGB">
<feFlood flood-opacity="0" result="BackgroundImageFix"/>
<feBlend mode="normal" in="SourceGraphic" in2="BackgroundImageFix" result="shape"/>
<feGaussianBlur stdDeviation="0.2" result="effect1_foregroundBlur_0_139"/>
</filter>
<filter id="filter3_d_0_139" x="0" y="32.4883" width="59.8396" height="39.1323" filterUnits="userSpaceOnUse" color-interpolation-filters="sRGB">
<feFlood flood-opacity="0" result="BackgroundImageFix"/>
<feColorMatrix in="SourceAlpha" type="matrix" values="0 0 0 0 0 0 0 0 0 0 0 0 0 0 0 0 0 0 127 0" result="hardAlpha"/>
<feOffset dx="2" dy="6"/>
<feGaussianBlur stdDeviation="4.3"/>
<feComposite in2="hardAlpha" operator="out"/>
<feColorMatrix type="matrix" values="0 0 0 0 0 0 0 0 0 0 0 0 0 0 0 0 0 0 0.41 0"/>
<feBlend mode="normal" in2="BackgroundImageFix" result="effect1_dropShadow_0_139"/>
<feBlend mode="normal" in="SourceGraphic" in2="effect1_dropShadow_0_139" result="shape"/>
</filter>
<filter id="filter4_f_0_139" x="30.5131" y="38.0147" width="8.18078" height="4.1961" filterUnits="userSpaceOnUse" color-interpolation-filters="sRGB">
<feFlood flood-opacity="0" result="BackgroundImageFix"/>
<feBlend mode="normal" in="SourceGraphic" in2="BackgroundImageFix" result="shape"/>
<feGaussianBlur stdDeviation="0.65" result="effect1_foregroundBlur_0_139"/>
</filter>
<filter id="filter5_f_0_139" x="48.1449" y="38.3406" width="17.6883" height="8.12468" filterUnits="userSpaceOnUse" color-interpolation-filters="sRGB">
<feFlood flood-opacity="0" result="BackgroundImageFix"/>
<feBlend mode="normal" in="SourceGraphic" in2="BackgroundImageFix" result="shape"/>
<feGaussianBlur stdDeviation="0.65" result="effect1_foregroundBlur_0_139"/>
</filter>
<filter id="filter6_i_0_139" x="31.9901" y="6.20042" width="37.7974" height="38.7904" filterUnits="userSpaceOnUse" color-interpolation-filters="sRGB">
<feFlood flood-opacity="0" result="BackgroundImageFix"/>
<feBlend mode="normal" in="SourceGraphic" in2="BackgroundImageFix" result="shape"/>
<feColorMatrix in="SourceAlpha" type="matrix" values="0 0 0 0 0 0 0 0 0 0 0 0 0 0 0 0 0 0 127 0" result="hardAlpha"/>
<feOffset dy="0.2"/>
<feGaussianBlur stdDeviation="0.1"/>
<feComposite in2="hardAlpha" operator="arithmetic" k2="-1" k3="1"/>
<feColorMatrix type="matrix" values="0 0 0 0 0.941176 0 0 0 0 0.996078 0 0 0 0 0.435294 0 0 0 1 0"/>
<feBlend mode="normal" in2="shape" result="effect1_innerShadow_0_139"/>
</filter>
<linearGradient id="paint0_linear_0_139" x1="75.7963" y1="49.6292" x2="12.6686" y2="108.765" gradientUnits="userSpaceOnUse">
<stop stop-color="#1A1A11"/>
<stop offset="1" stop-color="#2A2D18"/>
</linearGradient>
<linearGradient id="paint1_linear_0_139" x1="25.9933" y1="38.2052" x2="37.8123" y2="80.4612" gradientUnits="userSpaceOnUse">
<stop stop-color="#1A1A11"/>
<stop offset="1" stop-color="#3B421E"/>
</linearGradient>
<linearGradient id="paint2_linear_0_139" x1="27.9198" y1="35.0883" x2="33.4078" y2="53.1696" gradientUnits="userSpaceOnUse">
<stop stop-color="#494C25"/>
<stop offset="1" stop-color="#272814"/>
</linearGradient>
<linearGradient id="paint3_linear_0_139" x1="46.9769" y1="42.1471" x2="38.2823" y2="69.6085" gradientUnits="userSpaceOnUse">
<stop stop-color="#7F7F15" stop-opacity="0.52"/>
<stop offset="1" stop-color="#6A7815" stop-opacity="0.76"/>
</linearGradient>
<linearGradient id="paint4_linear_0_139" x1="89.6413" y1="36.2035" x2="67.1495" y2="67.901" gradientUnits="userSpaceOnUse">
<stop stop-color="#7F7F15" stop-opacity="0"/>
<stop offset="1" stop-color="#6A7815" stop-opacity="0.76"/>
</linearGradient>
<linearGradient id="paint5_linear_0_139" x1="16.177" y1="33.227" x2="30.7168" y2="28.6679" gradientUnits="userSpaceOnUse">
<stop stop-color="#2F3219"/>
<stop offset="1" stop-color="#282A17"/>
</linearGradient>
<linearGradient id="paint6_linear_0_139" x1="17.3916" y1="24.8169" x2="27.0864" y2="37.4929" gradientUnits="userSpaceOnUse">
<stop stop-color="#60682C"/>
<stop offset="1" stop-color="#1A1A11"/>
</linearGradient>
<linearGradient id="paint7_linear_0_139" x1="50.8888" y1="6.19996" x2="50.8888" y2="44.7913" gradientUnits="userSpaceOnUse">
<stop stop-color="#393F1D"/>
<stop offset="0.767736" stop-color="#191A10"/>
</linearGradient>
<linearGradient id="paint8_linear_0_139" x1="50.1499" y1="6.19313" x2="46.7381" y2="57.0883" gradientUnits="userSpaceOnUse">
<stop stop-color="#E6EC70"/>
<stop offset="0.623071" stop-color="#4E5125" stop-opacity="0"/>
</linearGradient>
<linearGradient id="paint9_linear_0_139" x1="65.5574" y1="7.34904" x2="65.5574" y2="17.6287" gradientUnits="userSpaceOnUse">
<stop stop-color="#E4EA70"/>
<stop offset="1" stop-color="#81843F"/>
</linearGradient>
<linearGradient id="paint10_linear_0_139" x1="63.3963" y1="39.5171" x2="74.8273" y2="43.6394" gradientUnits="userSpaceOnUse">
<stop offset="0.00480769" stop-color="#4C511B" stop-opacity="0.56"/>
<stop offset="0.487644" stop-color="#5D631F"/>
<stop offset="1" stop-color="#3B421E" stop-opacity="0.4"/>
</linearGradient>
<linearGradient id="paint11_linear_0_139" x1="42.9853" y1="2.07477" x2="37.9195" y2="15.4414" gradientUnits="userSpaceOnUse">
<stop stop-color="#E4EA70"/>
<stop offset="1" stop-color="#81843F"/>
</linearGradient>
</defs>
</svg>
